<?xml version="1.0" encoding="utf-8"?>
<!-- Generator: Adobe Illustrator 28.3.0, SVG Export Plug-In . SVG Version: 6.00 Build 0)  -->
<svg version="1.1" id="Layer_1" xmlns="http://www.w3.org/2000/svg" xmlns:xlink="http://www.w3.org/1999/xlink" x="0px" y="0px"
	 viewBox="0 0 625.2 147.5" style="enable-background:new 0 0 625.2 147.5;" xml:space="preserve">
<style type="text/css">
	.st0{fill-rule:evenodd;clip-rule:evenodd;fill:#252525;}
	.st1{enable-background:new    ;}
	.st2{fill:#252525;}
</style>
<path class="st0" d="M82.2,96.2C97,65,125.6,0,126.2,0c12.3,5.8,25.9,12.3,38.4,18.2c-15,31.8-30,63.6-45,95.3
	C107.9,107.9,82.4,97.3,82.2,96.2"/>
<path class="st0" d="M55.1,34.5c0,0,8.3,10.3,7.7,11.2c-15.4,9.2-31.2,20.2-46.1,30.1c15.4,9.2,30.5,18.8,45.5,28.7
	c-0.6,2.8-5.5,10.7-7.1,11.5C37.1,104.7,19,93.5,0.9,82.4c-1.2-4.6-1.2-9.2,0-13.7C19.2,57.8,55.1,34.5,55.1,34.5"/>
<path class="st0" d="M170.3,34.2C189,45.4,207.6,56.9,226,68.6c1,4,1.2,8.3,0.4,12.4c-18.3,11.9-36.8,23.4-55.6,34.4
	c-3.1-3.4-5.6-7-7.5-11c15.4-9.6,30.7-19.5,45.9-29.6l-45.9-29.1C165.3,41.6,167.4,38.1,170.3,34.2"/>
<path class="st0" d="M78.1,105.9c12.4,5.7,24.8,11.6,37.1,17.7c-10.7,7.7-21.5,15.1-32.7,22.1C80.6,132.5,79.1,119.2,78.1,105.9"/>
<g class="st1">
	<path class="st2" d="M267.9,106h53v9.5h-65.5v-9.1L308,35.1h-52.3v-9.5h64.6v9.1L267.9,106z"/>
	<path class="st2" d="M390.9,86.1h-52.3c0.7,13.7,9.6,22.4,21.7,22.4c8.6,0,15.5-4.4,18.9-12l9.6,1.6c-4.5,11.7-15.2,18.7-28.5,18.7
		c-19,0-32-13.1-32-32.8c0-19.8,13.1-32.9,31.7-32.9c17.8,0,30.9,12.1,30.9,32.5L390.9,86.1z M338.9,78.1h41.7
		c-1.3-11.7-9.5-18.7-20.5-18.7C348.7,59.4,340.6,66.2,338.9,78.1z"/>
	<path class="st2" d="M460.1,73.9v41.6h-10.4V75.7c0-10.7-6-16.1-15.6-16.1c-9.8,0-17.2,6.6-17.2,19.6v36.3h-10.3V52.4h10.3v8.8
		c4.2-6.4,11.2-10.1,20-10.1C451.9,51.1,460.1,59.6,460.1,73.9z"/>
	<path class="st2" d="M476.1,29.9c0-4,3.2-7.2,7.2-7.2c3.9,0,7.1,3.1,7.1,7.2c0,3.9-3.2,7.2-7.1,7.2
		C479.3,37.1,476.1,33.8,476.1,29.9z M478,115.5V52.4h10.3v63.1H478z"/>
	<path class="st2" d="M536.8,26.4c-6.9,0-12.6,3.4-12.6,14.2v11.8h15.7v8.3h-15.7v54.7h-10.3V60.7h-13v-8.3h13V40.6
		c0-17,8.8-22.6,22.9-22.6h3.1v8.5H536.8z"/>
	<path class="st2" d="M602.3,52.4h11.2L573.9,147h-11.3l14.3-33.2l-25.9-61.5h11.2l20,50.7L602.3,52.4z"/>
</g>
</svg>
