<?xml version="1.0" encoding="utf-8"?>
<!-- Generator: Adobe Illustrator 28.3.0, SVG Export Plug-In . SVG Version: 6.00 Build 0)  -->
<svg version="1.1" id="Layer_1" xmlns="http://www.w3.org/2000/svg"
  xmlns:xlink="http://www.w3.org/1999/xlink" x="0px" y="0px"
  viewBox="0 0 900 900" style="enable-background:new 0 0 900 900;" xml:space="preserve">
<style type="text/css">
	.st0{fill:#8000ED;;}
</style>
<g transform="translate(0.000000,900.000000) scale(0.100000,-0.100000)">
	<path class="st0" d="M3749.2,8976.6c-77.1-49.5-98-87.5-126.1-178c-66.5-324.6-115.9-668.6-153.4-1009.4
		c12.1-83.5-185.5-109.3-251.4-142.7c-71-26.8-201.5-97.4-282.3-125.6c-45.3,13-111.2,76.3-157.6,107.6
		c-294.9,209.8-477.3,395.3-739,550.7c-68.3,7.8-146.8,14-200.3-34.3c-116.3-70.8-254-208-361.2-305.5
		c-924.1-959.5-852.1-638.8-74.4-1688.8c106.3-131.8,25.4-121.5-13.7-244c-52.2-111.3-78.9-177-115.4-286.2
		c-12.9-32.2-23.9-78.3-54.6-96.7c-302.4-47.3-616.6-97.4-906.2-136.7c-63.3-13.7-131.7-17.6-190.8-37.5
		C77.3,5324,11.1,5263.7,0.3,5208.1c5.1-226.7-7.3-970.1,2-1297.6c6.6-116.8,2.7-149.9,22.1-166.8
		c25.7-86.7,186.3-115.3,300.6-124.7c124.1-20.8,223.9-30.5,351-55.9c62.5-5.5,123.4-8.6,181.1-25.8c64.3-9.8,141.1-13.4,208.9-29.4
		c62.3-12.1,173.1,0.4,186-78.9c47.1-116,53.8-178.7,120.7-314.5c20.1-45.2,44-84.9,57.8-132.4c20.5-27.4,35.4-64.5,27.6-100.3
		c-121.1-157.5-320.8-421.7-440.5-575.7c-74.9-98.5-169-204.5-198.4-301.8c-10.5-334.8,826-952.9,966-1126.5
		c103.7-95.6,192.8-126.8,333.8-29.2c184.4,127.6,415.3,310.8,590.5,438.2c240.4,169.6,157.5,218,424.8,85.8
		c54.6-28,117.5-46.1,182.6-72.5c41.9-22.1,140.4-34.8,150.8-84.9c32.4-181.9,60.6-379.5,91-559.7c1.5-70.3,19.3-123.1,30.1-196
		c0.1-58.1,15.8-116,26.3-177.9c5.2-76.4,20.5-168.9,72.1-226c29.1-30.9,38.3-44.3,157.2-50.6c243.3-6.9,490.4-6.5,765.8-3.1
		c160.8,3,252,1.3,379.1,0.8c117.8,0.5,174.3-8.1,255.1,9.1c33.1,5.5,65.8,65.6,90.5,114.4c101.9,324.8,126.9,756.4,184.5,1099.6
		c6.1,15,23.8,23.5,39.9,30.9c137.9,57.6,252,89.4,415.6,174.1c24.6,9.3,53.1,30,77.6,27.3c39.8-16.1,168.4-120.4,207-152.5
		c172.1-132.5,351.7-266.9,507.4-397.5c62.1-52.2,160.2-122.6,249.3-112c214.3-21.5,1011.6,879.6,1163.2,1081.9
		c10.8,56.1,8,155.9-13.6,194c-184,253.3-502.3,601.4-644.6,855.2c6.7,45.8,41.9,89.6,58.3,132.7c73.2,148.1,74,177.4,124,305.4
		c29.2,89.2,75.8,110.9,165.5,106.9c133,23.9,338.1,49.8,446.4,70.6c68.9,20.8,151.7,11.1,215.8,31c86.2,24.1,152.5,15.1,253.4,39.9
		c30,8.2,54.9,5.1,80.1,20.2c42.6,30.4,92,84.6,131.7,134c6.3,378,7,981.8-1.1,1361.6c-2.2,56.7-5.2,85.3-9.4,73.5
		c-4.4-4.3-11,3.4-16.1,8.7c-7.3,8.5-12.5,19.3-15.7,29.3c-10.3,36.2-46,60.3-95,78.3c-85.5,30.4-189.6,40.4-277.3,55.8
		c-251.1,35.9-493.7,77.2-749.1,111.8c-45.3,9.9-93.2,18.1-103.7,62.8c-26.8,63.3-41.8,123.5-70.4,1.0.2
		c0.7,32.1-91,172.8-125.5,288.2c-10.6,40.8-22.2,66.9,4.3,92.1c86.7,107.2,244.3,321.8,347.6,453.7
		c93.8,141.4,312.5,332.1,274.2,494.1c-43.4,141.1-729.6,846.3-950,1024c-61.6,55.5-109,101.1-182.2,92.3
		c-87.7,11.8-149.4-32.2-206.3-79c-116.1-89.8-217.4-164.4-344.1-259.2c-131.2-98.8-271.2-206.6-402.7-305.5
		c-25.7-20.5-47.2-20.2-73.9-4.1c-109.3,47.3-220.3,105.9-350.3,148.7c-36.5,13-58.8,20.8-89.9,33.2c-27.8,13.2-39.5,14.8-45.9,36.7
		c-20.7,139.5-54.1,294.5-71.4,451c-31.9,169.7-47.8,336.9-77.6,507.9c-15,90.7-29.8,204.1-122.2,246.2
		c-11.7,6.5-28.8,13.3-32.9,26.3c-1.7,5.6-24.3,8.2-98.9,10.4c-299.5,6.2-740.6,2.2-1064,2.8c-41.4-1.1-95.8,0.2-130.3-1
		c-151.2-4-152.6-2.7-166.8-21.1L3749.2,8976.6z M4695.9,5978.9C5776.6,5840.2,6354.4,4561,5746,3666.9
		c-306.8-467-833.2-714.7-1372.6-673c-365.7,27.6-715.6,189.9-971.7,461.6c-974,1012.5-97.3,2721.6,1292.2,2523.7L4695.9,5978.9z"/>
</g>
</svg>
