<?xml version="1.0" encoding="utf-8"?>
<!-- Generator: Adobe Illustrator 28.3.0, SVG Export Plug-In . SVG Version: 6.00 Build 0)  -->
<svg version="1.1" id="Layer_1" xmlns="http://www.w3.org/2000/svg" xmlns:xlink="http://www.w3.org/1999/xlink" x="0px" y="0px"
	 viewBox="0 0 900 900" style="enable-background:new 0 0 900 900;" xml:space="preserve">
<style type="text/css">
	.st0{fill:#8000ED;;}
</style>
<g transform="translate(0.000000,900.000000) scale(0.100000,-0.100000)">
	<path class="st0" d="M4638.9,8693.1c-535.1-149-363.1-919.1-439.9-1333.1c-127.5-730.1-712.8-1261.6-1315.7-1700
		c-180.3-196.6-27.8-3547.6-67.8-4696.7C3508.6,624,4352,442.5,5130.9,348.5c1953.4-157.2,3378-434.6,3559.8,1995.2
		c103.7,558,180.8,1127.7,301.5,1693.9c14.9,86.5,9.5,236.1,3.6,320.7C8754.7,5955.6,7174,5712.8,5837.6,5713.2
		c-53.7-0.7-102.2,14.7-76.5,77.4c207,609.9,367.1,1522.9,101.3,2126.8c-192.9,453.6-706.2,856.7-1221.7,776.1L4638.9,8693.1z"/>
	<path class="st0" d="M475,5965.2c-193.8-57.9-360.7-199.6-433.2-383.4c-67.8-184.4-21.6-340.9-39.8-847.5
		C3.4,3418.8-20.8,1047.6,26.4,809.9c73.4-209.3,252.9-376.1,477.9-425.2c257.8-46.2,691.4-17.4,1008.5-20.4
		c277.9-17,563.7,141.2,672.5,395.5c41.7,106.3,49.2,94.5,52.7,467.2c1.9,609.6-0.3,1250.3,2,1892.8
		c-0.2,622.1,0.6,1105.4-0.7,1561.2c-16.3,802.4,28.4,650.2-50.5,896.3c-72.5,180.3-212.7,310.9-395.7,374.8
		c-142.3,57.1-372.3,29.4-545.7,36.9c-232.3-7-560,18.3-771-23.4L475,5965.2z"/>
</g>
</svg>
