<?xml version="1.0" encoding="utf-8"?>
<!-- Generator: Adobe Illustrator 28.3.0, SVG Export Plug-In . SVG Version: 6.00 Build 0)  -->
<svg version="1.1" id="Layer_1" xmlns="http://www.w3.org/2000/svg" xmlns:xlink="http://www.w3.org/1999/xlink" x="0px" y="0px"
	 viewBox="0 0 900 900" style="enable-background:new 0 0 900 900;" xml:space="preserve">
<style type="text/css">
	.st0{fill:#8e1dff;;}
</style>
<g transform="translate(0.000000,900.000000) scale(0.100000,-0.100000)">
	<path class="st0" d="M4324.6,8599.4c-125.5-4.1-204.4-41-342.4-100.6c-142.9-64.8-280.8-133.6-420-202.2
		c-690.5-342.9-1347-657.5-2030.3-1002.8c-241.1-122.6-388.5-194.6-606.3-297.3c-347.9-160-406.8-182.7-518.7-429.1
		c-95.6-239.1,1.4-537.5,215.8-677.7c951.7-492.1,2014.2-993,2985.8-1480.1c277.6-136.4,561.7-300.3,880.2-290.9
		c93.5,1.3,188,10.4,282.5,36.1c1091.3,433,1907.8,927.1,3209.5,1541c78.1,38.5,146.6,72.1,220.1,110.8
		c109.1,60,211.4,106.6,287,198.7c109.8,130.5,139.9,316.6,108.5,483.4c-18.4,92.6-75.8,190.5-129.9,255
		c-74.2,93.1-179,144.3-292.9,197.5c-678.3,329.9-1397,689.6-2077.1,1021.9c-248.1,120.9-515,242.2-748.6,361.9
		c-514.1,264.1-466.8,285.9-1021.6,274.4L4324.6,8599.4z"/>
	<path class="st0" d="M662,4989.3c-240.9-123.2-356-450-254-703.6c48.8-109.3,108.8-206.4,208.1-271.7
		c63.3-41.6,157.4-85.1,232.9-120.2c98.2-45.4,219.8-102,319.3-150c262.3-126.6,516.2-263.8,777.6-389.4
		c741.5-361,1321.8-658.3,2027.8-992.8c264-119.3,402.5-149,684.4-104.2c86.9,13.4,182,38,259.9,71
		c1005,446.6,2669.8,1311.1,3352.9,1637c59.2,32.6,121.6,74.2,176.1,125.5c110.8,99.4,161.6,248.7,159.9,400.4
		c4.8,146.9-42.7,270-139.5,375.8c-65.5,72.7-192.8,166.7-292,162.1c-70.9-16.8-262.2-116.7-359.3-162.4
		c-933.1-457.3-1879.3-931.4-2807.7-1380.2c-159.5-70.5-196.9-84.2-337.1-103.5c-144.4-12.8-344.6-17.3-490.3,23.6
		c-283.2,93.9-890.5,418.2-1271.9,601.3c-633.2,306.7-1392.5,694.3-1990.1,975.8c-84.9,36.8-171.4,55.5-255.5,6.1L662,4989.3z"/>
	<path class="st0" d="M723.2,3139.4C488.6,3059,352,2812.2,373.4,2568c5.4-77.3,26-144.1,59.8-197.2
		c183.3-289.9,160.7-243,922.2-597.7c86.7-40.5,181-84.6,262.1-123.3c338-159.1,933.3-461.3,1425.7-710.8
		c300.5-143.7,687.3-364.9,1021.6-490.5c188.4-71.2,311.1-92.6,484.1-78.5c125.2,3.6,215.3,10.4,344.2,62.7
		c776.9,347.5,1691.4,835.4,2837,1389.9c105.6,51.2,207.6,104.8,313.7,156.1c189.3,92.3,335.4,142.2,433.7,272.1
		c124.5,155.4,151.8,318.4,116.8,512.2c-34.9,164.4-182,323.5-336.7,375.4c-55.6,18.6-111.2,10.4-163.8-12.7
		c-63.1-26.3-148.1-67.8-217-101.3c-916.1-449.9-1799.7-891-2736.2-1350.1c-50.8-24.5-103.2-49.5-154.7-72.7
		c-164.1-74.1-246.5-89.7-401.2-110c-531.4-29.2-1054.7,359.4-1538.7,577.3c-673,322.6-1421.5,705.8-2113.4,1036.9
		c-72.5,30.8-138.7,57.8-207.9,34L723.2,3139.4z"/>
</g>
</svg>
