<?xml version="1.0" encoding="utf-8"?>
<!-- Generator: Adobe Illustrator 28.3.0, SVG Export Plug-In . SVG Version: 6.00 Build 0)  -->
<svg version="1.1" id="Layer_1" xmlns="http://www.w3.org/2000/svg" xmlns:xlink="http://www.w3.org/1999/xlink" x="0px" y="0px"
	 viewBox="0 0 900 900" style="enable-background:new 0 0 900 900;" xml:space="preserve">
<style type="text/css">
	.st0{fill:#8CFF00;}
</style>
<g transform="translate(0.000000,900.000000) scale(0.100000,-0.100000)">
	<path class="st0" d="M1211.3,7415.7c-147.6-84.6-207.4-271.6-135.2-425.5c23.1-53.1,81.4-107.5,132.4-161.3
		c82.9-86.1,170.1-173.1,252.1-257.2c41.8-43.2,100.2-103.8,129.2-139.3c18.5-20.7,21.9-45.8,1.1-66.4
		c-26.5-30.9-74.8-59.3-110.5-87.1c-363.3-270.6-727.7-613.7-1009.4-948.3c-316.7-386.4-632.5-727.8-397.5-1146.9
		C1289.4,2271.7,3759.2,1190.9,5944,1908c59.1,17.5,91.2,27.7,117.2,28.7c28.7,1,47.5-9.9,90.2-51.1
		c151-155.2,305.6-306.5,465.5-458.9c96.7-92.7,207.6-209.6,302-293.5c78-72.7,159-99.1,265.2-76.2
		c205.1,37.8,333.6,255.8,249.4,448.9c-8.4,26.4-37.9,77.8-48.6,88.8c-97.3,103.7-895.3,902.6-1979,1986.4
		c-387.2,385.2-764.4,769-1163.4,1156.4c-314.8,306.4-685.1,671.1-955.9,940.9c-401.9,400.5-639.3,641.3-961.8,972
		c-83.5,85.8-159.2,163.7-226.2,233c-672.7,694.6-555.9,582.7-820.4,554.4c-23.4-1.8-36.4-6.7-65.6-21.5L1211.3,7415.7z
		 M3028.1,5009.8c61.3-61.3,169.7-170,233.5-233.8c11.4-11.5,21.9-23.8,23.2-40.1c-182.3-801.8,590.3-1615.7,1406.6-1456.8
		c38.8,6.4,63.9,1.6,87.9-22.6c125-127.3,418.9-412.2,478-487.3c1.6-4,0.4-7.6-4.8-11.8c-6.2-5-17.8-10.7-33.6-17.6
		c-1377.1-573.9-2857.5,619-2593.9,2086.2c21.7,123,55.4,244.5,102.9,364.1c8.1,20.4,19.8,47.5,32.5,62.2c7,7.5,14,5.2,20.4-0.7
		c53.1-48,181.5-175.5,246.4-241L3028.1,5009.8z"/>
	<path class="st0" d="M4151.4,7285c-368.7-24.5-861-112.6-1154.3-226.4c-14.3-5.6-27.2-11.1-37.8-16.2
		c-19.1-9.3-30.2-17.7-30.8-27.5c0-7.9,4.1-14.7,9.7-21.5c27-33.1,141.8-150.1,202.6-212.5c103-105.3,208.3-209.8,312.8-314.1
		c70-68.5,155-156.6,223.8-211.7c22.8-16.2,28.5-21.2,57.6-13.4c17,4.3,31.9,10.3,49.4,16c273.8,99,579,139,872.6,115.6
		C5932.4,6283,6706,4917.9,6247.6,3761.8c-2.9-8.6-5.6-15.6-8-23.5c-9.3-29.5-3.7-30.6,6.5-47.8
		c104.4-128.4,245.2-256.9,365.1-380.8c152.2-152.4,296.1-296.4,448.8-446.8c122.8-120.9,216.2-211.8,255.8-247.7
		c7.4-6.5,14.7-10.9,24.5-10.8c29.9,4.2,71.7,34.1,100.8,53.6c490.1,330.7,983.8,848.4,1324.4,1309.6
		c82,110.9,165.4,230.7,212.8,358.2c28.5,65.9,31.3,142,26.5,214.5c-2.6,33.7-8.5,64.7-21.2,95.1
		c-49.4,106.8-109.5,208.4-175.1,309.7C7754.7,6447.5,6002.3,7412.6,4153.4,7285.2L4151.4,7285z"/>
	<path class="st0" d="M4335.5,5705.5c-24.8-5.5-62.4-12-75.4-21.6c18.9-35.2,286.6-301.8,386.9-404.5
		c224.3-226.4,552.9-554.7,746.4-746.3c235.5-232.8,285.8-276.2,294.1-267.9c208,756-584.4,1581.2-1349.8,1440.7L4335.5,5705.5z"/>
</g>
</svg>
