<?xml version="1.0" encoding="utf-8"?>
<!-- Generator: Adobe Illustrator 28.3.0, SVG Export Plug-In . SVG Version: 6.00 Build 0)  -->
<svg version="1.1" id="Layer_1" xmlns="http://www.w3.org/2000/svg" xmlns:xlink="http://www.w3.org/1999/xlink" x="0px" y="0px"
	 viewBox="0 0 900 900" style="enable-background:new 0 0 900 900;" xml:space="preserve">
<style type="text/css">
	.st0{fill:#6F00FF;}
</style>
<g transform="translate(0.000000,900.000000) scale(0.100000,-0.100000)">
	<path class="st0" d="M4410.7,8512c-41.5-11.3-67.5-30.5-157.1-113.6c-84.2-80.1-166.2-162.9-251.4-248.2
		c-123.1-132.7-372.1-333.5-352.2-459.5c-18.6-237.8,278.1-385.5,458.1-224c25.9,21.3,56,50,79.1,65.8c12.3,8.2,13.4,7.5,13.8,4.6
		c9.4-54.7,9.7-376,11.4-495.1c4.9-123.1-6.1-355.2,8.4-396.7c43.6-79.7,110.4-161.6,206.7-177.7c164.1-24.2,265.7,45.2,337.2,188.2
		c1.6,99,2.9,439.2,4.9,586.3c1.5,111.1,4.2,272.1,10.1,296.7c89.1-55.5,149.7-149.3,275.7-138.5c205.3-5.9,339.3,227.5,247,403.6
		c-57.5,81.5-585.9,620-674.5,683.2c-57.6,35.3-154.5,32.1-216.3,25.1L4410.7,8512z"/>
	<path class="st0" d="M1995.3,7766.2c-28.7-7-64.3-18.4-84-30.3c-63.7-45.5-610.7-597.3-665.8-671.6c-31-41-29.3-101.8-28.3-153.1
		c0-86.3,27.1-134.6,83.2-185.2c110.7-106.4,272.2-101.6,386.4,3.1c20.4,16.5,43.4,40.9,68.9,46.4c5.8-1,5.6-8.1,7.9-22.4
		c3-20.3,6.2-150.4,5.8-213.3c1-153.3,0.1-314.5,1.2-467.2c8.4-236.6-13.4-305.3,34.8-395.7c49.2-91.7,150.4-157.6,252.6-154.2
		c102.1-0.6,205,69.6,254,172c11.8,24.1,15.8,52,17.2,223.3c0.3,34.4,0.4,62.6,0.5,97.6c1.8,207.6-3.2,580,6.9,750.6
		c0.6,5.6,0.9,10.6,2.1,15.9c9.3,11.7,56.7-33.2,67.8-41.7c179.7-188,497.2-61.9,487.3,201.5c12,77-72.2,176.7-166.8,271.7
		c-65.7,69-132.1,134.9-207.1,210.8c-152.6,152.5-284.9,280-322,308c-58.9,34-132.7,52.3-200.6,34.4L1995.3,7766.2z"/>
	<path class="st0" d="M6870.1,7766.3c-31.7-7.7-64.8-17.4-89.3-34.1c-20.4-12.3-178.9-171.3-307.4-298.3
		c-79.7-80.1-155.4-155.4-229.3-232.3c-53.8-58.2-109.1-108.8-137-162.8c-101-237.7,156.6-485,390.7-355.1
		c45,25.1,84.2,70.1,128.8,96.8c17.4,9.4,14.6,0.6,16.4-11.5c11.3-186.9,4.9-584.1,7.4-804c0.1-15.5,0.2-30.3,0.3-47
		c1.4-171.3,5.4-199.3,17.2-223.3c40.7-83.6,108.3-144,198.9-163.5c138.7-34.8,289.8,58.4,330.4,197.6c11.3,47.3,9,143.7,12.2,340.8
		c1.1,144.2,0.2,300,1.4,446.3c3.4,87.4-3.8,214.4,11.8,261.5c28.1,1,48.2-31.3,69.5-47.1c112.5-106,277.9-110.5,387.6-4.2
		c56,50.6,83.3,98.9,83.2,185.2c0.9,51.2,2.8,112.1-28.3,153c-54.8,73.2-591,616-660.9,668.5c-60.8,33.6-129.9,52.5-201.4,34.1
		L6870.1,7766.3z"/>
	<path class="st0" d="M4239.4,6260.9c-915-75.8-1744.7-598.5-2225.9-1373.6c-66.6-107.9-148.4-270.9-195.5-377.8
		c-61-149.7-104.2-279.1-145.2-421.8c-5.3-31.2-10.2-65.8-20.5-97c-12.1-44.8-23-101-32.6-164.4c-21.8-147.8-34.5-308.2-34.7-458.4
		c-9.3-1219.3,778-2325.5,1925.8-2739c198.3-72,372.7-108.8,605.5-146.5c171.1-20,551.5-28.2,773.9,4
		c1619.6,227.8,2739.7,1753.7,2465.1,3366.4c-62.3,370.1-204,740.7-413.1,1073.5c-232.5,360.4-587.5,713.6-966.7,937.3
		c-514.7,306.7-1094.6,440.3-1734.3,397.5L4239.4,6260.9z M4601.9,5121c60.4-26.2,111-79.8,142.7-137.8
		c29.7-54.5,17.2-280,21.6-379.2c3-302.2-0.1-703.2,7.5-993.5c6.5-92.8-8-83,68.7-128.8c196.9-116.6,639.3-378.2,766.9-467
		c180.8-156.6,91-441.7-136.1-486.6c-55.4-12.4-87.5-12.9-205.5,49.2c-146.9,79.8-248.2,142.9-421.7,246.6
		c-96.6,57.9-204.9,123.9-296,180.1c-140.7,87-241.9,151.5-260.1,167.2c-24.2,27.2-43.7,56.2-61.5,89.1
		c-4.3,8.1-11.8,19.5-13.6,27.3c0.9,59-0.7,644.5,0,826.9c6,253-14.5,750.8,17.7,863.3c65.1,140.2,225.3,207.9,367.6,144.1
		L4601.9,5121z"/>
</g>
</svg>
