<?xml version="1.0" encoding="utf-8"?>
<!-- Generator: Adobe Illustrator 28.3.0, SVG Export Plug-In . SVG Version: 6.00 Build 0)  -->
<svg version="1.1" id="Layer_1" xmlns="http://www.w3.org/2000/svg" xmlns:xlink="http://www.w3.org/1999/xlink" x="0px" y="0px"
	 viewBox="0 0 900 900" style="enable-background:new 0 0 900 900;" xml:space="preserve">
<style type="text/css">
	.st0{fill:#8000ED;;}
</style>
<g transform="translate(0.000000,900.000000) scale(0.100000,-0.100000)">
	<path class="st0" d="M4211.3,8983.2C3217.2,8833,2359,8021.1,2255,6997.1c-25-293.1-10.8-606.7-15.3-905.9
		c-1.2-115.1-0.5-297.3-5-391.9c0.6-32.8-5.8-58.9-39-66.7c-395.6-26.8-737.2-65.9-956.3-429c-232.1-459.8-112-2320-125.2-3585.1
		c5.4-372.9,8.7-641.3,7.8-792.9c-1.6-290.4,167-570.8,421.8-717.1c75-43.3,170.3-85.8,250.8-98.6c618.5-6.3,1552-13,2370.7-10.8
		c971.9-1.3,2277-2.9,3033,12.5c84,20.3,165.7,54.6,251.3,105.3c234.3,135.9,395.7,403.6,409,671.2
		c2.9,535.5,47.9,3687.9-23.5,4191.9c-12.6,44.9-41.9,125.9-71.4,177.5c-322.9,612.6-933.1,348.5-1001.4,556.6
		c-12.8,32.7-14.6,72.2-15.8,108.1c-2.7,130.6-2.5,261.5-2.8,391.7c-1.1,355.3-2.8,710.4-76.3,1057.4
		c-212.1,1079.7-1375.8,1856.9-2454.4,1712.3L4211.3,8983.2z M4706.8,8222.9c594.8-86,1083.5-538.4,1237.2-1112.6
		c67.7-255.1,39.2-887.8,42.8-1323.3c3.4-90.9-17.7-168-118.3-162.6c-763.1-0.6-2006.5-2.3-2767.8,0.6
		c-130.5,6.3-103.2,120.6-108.1,235.6c9.4,492.4-37.3,1016.9,65.7,1322c203.1,683.5,942.5,1156.7,1646.4,1040.6L4706.8,8222.9z
		 M4713.4,4080.5c580.5-177,700.8-949.3,231.8-1307.1c-107-90.6-78.6-161.9-84-301.1c0.4-99.2-0.1-188.1-1.1-284.2
		c-14.8-168.4,35.3-359.5-50-512.3c-124.4-211.3-426.8-240.8-591.5-61.1c-71.1,70.2-99.1,167.9-96.7,265.8
		c-1.5,200-2.7,538.9-6,705.2c-0.8,51.2-2.6,85-24.7,120.5c-32.5,49.8-74.8,82.7-123.7,132.4c-564.9,518,17.7,1480.8,743.8,1242.5
		L4713.4,4080.5z"/>
</g>
</svg>
