<?xml version="1.0" encoding="utf-8"?>
<!-- Generator: Adobe Illustrator 28.3.0, SVG Export Plug-In . SVG Version: 6.00 Build 0)  -->
<svg version="1.1" id="Layer_1" xmlns="http://www.w3.org/2000/svg" xmlns:xlink="http://www.w3.org/1999/xlink" x="0px" y="0px"
	 viewBox="0 0 257 165" style="enable-background:new 0 0 257 165;" xml:space="preserve">
<style type="text/css">
	.st0{fill-rule:evenodd;clip-rule:evenodd;fill:#7300FF;}
</style>
<g>
	<path class="st0" d="M143,0c-0.7,0-33.2,73.6-49.9,109c0.3,1.3,29.2,13.3,42.4,19.7c17-36,34-72,51-108C172.4,14,156.9,6.6,143,0z"
		/>
	<path class="st0" d="M1,77.9C-0.3,83-0.3,88.1,1,93.4c20.6,12.5,41.1,25.2,61.5,38c1.8-0.8,7.3-9.9,8-13
		C53.6,107.1,36.4,96.3,19,85.9c16.9-11.2,34.8-23.6,52.2-34.1c0.7-1-8.8-12.7-8.8-12.7S21.7,65.5,1,77.9z"/>
	<path class="st0" d="M256,77.7c-20.8-13.3-41.8-26.3-63-39c-3.3,4.5-5.7,8.4-8,13l52,33c-17.2,11.4-34.5,22.6-52,33.5
		c2.2,4.5,4.9,8.6,8.5,12.5c21.3-12.5,42.3-25.5,63-39C257.3,87.1,257.1,82.3,256,77.7z"/>
	<path class="st0" d="M93.5,165c12.6-7.9,24.9-16.3,37-25c-13.9-6.9-27.9-13.5-42-20C89.6,135.1,91.3,150.1,93.5,165z"/>
</g>
</svg>
