<svg viewBox="3.852 -8.591 257.001 165.015" xmlns="http://www.w3.org/2000/svg"><path style="opacity:1;fill-rule:evenodd;fill:#7300ff" d="M95.174 131.121c16.756-35.342 49.241-108.95 49.908-108.95C159 28.795 174.459 36.13 188.541 42.839q-25.524 54.047-51 108c-13.213-6.44-42.108-18.457-42.367-19.718" transform="translate(1.763 -30.762)"/><path style="opacity:1;fill-rule:evenodd;fill:#8CFF00" d="M63.999 42.25s9.417 11.669 8.75 12.669C55.316 65.357 37.4 77.771 20.5 89A1366 1366 0 0 1 72 121.5c-.721 3.123-6.233 12.16-8 13a5664 5664 0 0 0-61.5-38Q.544 88.671 2.5 81c20.735-12.358 61.499-38.75 61.499-38.75" transform="translate(2.33 -11.727)"/><path style="opacity:1;fill-rule:evenodd;fill:#8CFF00" d="M206.609 28.166a3087 3087 0 0 1 63 39 33.2 33.2 0 0 1 .5 14 1526 1526 0 0 1-63 39c-3.553-3.877-6.312-7.961-8.5-12.5a2059 2059 0 0 0 52-33.5l-52-33c2.278-4.601 4.694-8.518 8-13" transform="translate(-9.773 1.955)"/><path style="opacity:1;fill-rule:evenodd;fill:#7300ff" d="M99.5 122.5a1749 1749 0 0 1 42 20 718 718 0 0 1-37 25 623 623 0 0 1-5-45" transform="translate(-7.167 -11.076)"/></svg>