<svg xmlns="http://www.w3.org/2000/svg" width="512" height="512"
  style="shape-rendering:geometricPrecision;text-rendering:geometricPrecision;image-rendering:optimizeQuality;fill-rule:evenodd;clip-rule:evenodd">
  <path style="opacity:.997" fill="#b265ff"
    d="M249.5-.5h6v138q-59.5 58.5-118 118H-.5v-6A28438 28438 0 0 1 244.5 3a29 29 0 0 0 5-3.5" />
  <path style="opacity:.997" fill="#9832ff"
    d="M255.5-.5h6a28441 28441 0 0 1 246.5 245 29 29 0 0 0 3.5 5v6h-138q-58.5-59.5-118-118z" />
  <path style="opacity:1" fill="#ba98ff" d="M255.5 137.5v236q-59.5-58.5-118-118 58.5-59.5 118-118" />
  <path style="opacity:1" fill="#b265fe" d="M255.5 137.5q59.5 58.5 118 118-58.5 59.5-118 118z" />
  <path style="opacity:.997" fill="#9932ff"
    d="M-.5 255.5h138q58.5 59.5 118 118v138h-6A28438 28438 0 0 1 3 266.5a29 29 0 0 0-3.5-5z" />
  <path style="opacity:.997" fill="#7928cc"
    d="M373.5 255.5h138v6a28441 28441 0 0 1-245 246.5 29 29 0 0 0-5 3.5h-6v-138q59.5-58.5 118-118" />
</svg>
