<svg xmlns="http://www.w3.org/2000/svg" width="2602" height="512" style="shape-rendering:geometricPrecision;text-rendering:geometricPrecision;image-rendering:optimizeQuality;fill-rule:evenodd;clip-rule:evenodd"><path style="opacity:.997" fill="#b265ff" d="M249.5-.5h6v138q-59.5 58.5-118 118H-.5v-6A28438 28438 0 0 1 244.5 3a29 29 0 0 0 5-3.5"/><path style="opacity:.997" fill="#9832ff" d="M255.5-.5h6a28441 28441 0 0 1 246.5 245q4.281 4.671 3.5 11h-138q-58.5-59.5-118-118z"/><path style="opacity:.98" fill="#343434" d="M789.5 59.5q77.073-5.283 148 25 1.5 28.983 1 58a18.5 18.5 0 0 1-6-.5q-45.347-33.65-102-39a361 361 0 0 0-38 0q-34.19 2.723-57.5 27.5-15.478 23.865-6 51 8.44 19.438 28.5 26.5a99 99 0 0 0 15 5 6106 6106 0 0 0 88 17q33.82 6.597 62 26 23.223 18.17 28.5 47.5 10.377 85.09-67.5 120.5a165 165 0 0 1-44 12q-87.763 10.107-167.5-27.5-.75-30.496-.5-61a18.5 18.5 0 0 1 6 .5q66.048 51.344 150 46 37.42-2.12 63.5-28.5 13.963-19.299 10-43-4.286-27.295-30.5-36.5a142 142 0 0 0-18-6 3787 3787 0 0 0-85-16q-33.463-6.312-61-26-39.721-36.054-31.5-89.5 5.967-34.185 32.5-56.5 36.294-28.18 82-32.5"/><path style="opacity:.977" fill="#343534" d="M1639.5 63.5h53v48h-53zm334 0h53v48h-53z"/><path style="opacity:.991" fill="#343434" d="M1780.5 78.5h47v78h94v39h-94c-.17 52.668 0 105.334.5 158 1 13.156 6.16 24.323 15.5 33.5a38.6 38.6 0 0 0 13 6 154 154 0 0 0 33 1c10.73-2.416 21.4-4.916 32-7.5v42c-25.98 6.882-52.31 8.715-79 5.5-28.7-4.704-47.54-20.871-56.5-48.5a133.6 133.6 0 0 1-5-26c-.5-54.666-.67-109.332-.5-164h-31v-39h31z"/><path style="opacity:1" fill="#ba98ff" d="M255.5 137.5v236q-59.5-58.5-118-118 58.5-59.5 118-118"/><path style="opacity:1" fill="#b265fe" d="M255.5 137.5q59.5 58.5 118 118-58.5 59.5-118 118z"/><path style="opacity:.986" fill="#343434" d="M1449.5 148.5c67.49-4.35 102.65 27.317 105.5 95 .5 61.999.67 123.999.5 186h-47c.17-56.001 0-112.001-.5-168q.18-24.458-9-47c-6.36-10.352-15.53-16.852-27.5-19.5-20.41-3.768-40.08-1.435-59 7-13.92 6.202-26.75 14.035-38.5 23.5-.5 67.999-.67 135.999-.5 204h-47v-273h47c-.17 9.339 0 18.673.5 28 22.06-18.612 47.22-30.612 75.5-36"/><path style="opacity:.983" fill="#343434" d="M2601.5 252.5v45h-200c-1.15 25.388 6.02 48.055 21.5 68q23.955 24.852 58.5 28.5c40.06 3.199 76.39-6.801 109-30q2.775-1.692 6-1.5c.33 17.013 0 34.013-1 51-24.67 10.723-50.34 17.89-77 21.5-37.82 4.42-73.49-2.247-107-20-36.14-24.751-55.3-59.251-57.5-103.5-3.55-36.385 3.12-70.718 20-103q32.55-52.675 94.5-59.5 37.2-4.529 72 9 43.44 20.108 55.5 66.5a253 253 0 0 1 5.5 28m-132-66q84.15-8.213 87 76h-155q4.335-51.055 51-71.5a326 326 0 0 1 17-4.5"/><path style="opacity:.978" fill="#343434" d="M1096.5 150.5c21.73-.596 43.4.237 65 2.5 49.91 7.909 75.75 37.076 77.5 87.5.5 62.999.67 125.999.5 189h-47c.33-9.025 0-18.025-1-27-22.17 19.079-47.83 30.579-77 34.5q-58.845 9.404-94.5-37.5c-13.45-23.126-17.11-47.793-11-74 3.92-17.246 12.75-31.413 26.5-42.5 20.18-13.953 42.51-22.62 67-26a819 819 0 0 1 90-7.5c1.34-36.503-16.33-55.669-53-57.5-35.66-2.446-69.99 3.221-103 17a18.4 18.4 0 0 1-6 .5c-.33-15.681 0-31.348 1-47 21.54-5.421 43.21-9.421 65-12m81 137h15a1448 1448 0 0 1-1 76c-17.47 14.069-37.14 23.902-59 29.5a180.7 180.7 0 0 1-36 1q-49.275-8.72-40.5-58.5c3.17-12.506 10.34-22.006 21.5-28.5 16.57-8.782 34.23-13.782 53-15 15.83-1.432 31.49-2.932 47-4.5"/><path style="opacity:.976" fill="#343434" d="M1642.5 156.5h47v273h-47zm334 0h47v273h-47z"/><path style="opacity:.99" fill="#343434" d="M2094.5 156.5h213q.69 18.152-1.5 36L2148.5 390c54.33.5 108.67.667 163 .5v39h-221c-.17-11.671 0-23.338.5-35a44762 44762 0 0 0 157.5-198c-51.33-1-102.66-1.333-154-1z"/><path style="opacity:.997" fill="#9932ff" d="M-.5 255.5h138q58.5 59.5 118 118v138h-6A28438 28438 0 0 1 3 266.5a29 29 0 0 0-3.5-5z"/><path style="opacity:.997" fill="#7928cc" d="M373.5 255.5h138q.781 6.329-3.5 11a28441 28441 0 0 1-246.5 245h-6v-138q59.5-58.5 118-118"/></svg>
