<svg data-name="Layer 2" xmlns="http://www.w3.org/2000/svg" viewBox="0 0 459.05 437.23">
  <path
    d="M141.04 1.36C130.89 3.38 120.3 14.5 111.38 22 92.17 39.38 73.7 57.2 54.77 75.22c-9.95 9.54-20.3 19.51-30.17 29.19-10.4 10.2-20.91 19.6-23.31 33.14-1.51 11.83-.89 23.5-1.2 36.33-.08 30.12-.19 65.34.08 95.1.16 9.86.33 19.87 1.38 29.4 1.13 9.87 3.54 15.25 11.3 23 35.23 34.58 75.75 74.9 114.04 107.58 11.49 9.71 33.2 8.06 48.86 8.26 32-.04 61.95.05 93.57-.02 19.11-.81 42.43 1.64 57.96-4.5 7.11-3.89 12.9-10.17 19.3-15.79 29.54-28.85 83.23-76.08 107.13-104.8 5.86-10.82 4.36-25.69 5.13-39.23.36-31.21.18-67.71.12-98.61-.12-10.35-.15-23.6-.54-30.3-.39-7.64-1.77-13.11-5.91-19.45-26.49-32.11-80.57-79.06-110.67-108.25-7.93-6.82-12.98-13.05-23.98-14.37C289.34-1.02 252.1.41 221.69 0c-26.83.51-55.47-.92-80.58 1.34m207.32 200.64c13.93 10.88 8.92 34.43-8.88 36.69-42.78 1.81-157.54 1.06-209.67.5-6.19-.16-10.37-.01-14.71-1.57-10.32-3.47-15.5-17.63-10.79-27.59 6.01-13.31 14.5-11.38 27.14-11.83 11.4-.2 23.49-.27 35.05-.33 38.97-.15 78.09-.2 117.29-.04 15.18.08 29.16.15 42.38.36 7.76.52 15.52-1.2 22.1 3.75"
    style="fill:#8000ED;stroke-width:0" data-name="Layer 1" />
</svg>
