<?xml version="1.0" encoding="utf-8"?>
<!-- Generator: Adobe Illustrator 28.3.0, SVG Export Plug-In . SVG Version: 6.00 Build 0)  -->
<svg version="1.1" id="Layer_1" xmlns="http://www.w3.org/2000/svg" xmlns:xlink="http://www.w3.org/1999/xlink" x="0px" y="0px"
	 viewBox="0 0 899.3 899.3" style="enable-background:new 0 0 899.3 899.3;" xml:space="preserve">
<style type="text/css">
	.st0{fill:#8CFF00;}
</style>
<path class="st0" d="M410.6,1.9C124.9,31-61.7,303.7,17.9,580.2c36.3,123.7,131.2,230.1,249.1,282c95.7,42.5,208.9,48.2,309.8,19.3
	c205.9-59.9,346.3-271,318.8-484.1C876.3,244.3,773.9,103.5,632.2,41.1c-69.8-31-145.6-46.4-221.4-39.2L410.6,1.9z M485,91.5
	c43,4.7,86.3,16.8,124.8,36.4c11.6,5.8,58.6,31.1,56.1,41.2c-51.4,55-444.6,447.3-499.1,499.3c-4.9,1.9-9.8-4.8-18.2-16.2
	C102.5,584.8,81.1,501.1,88.5,420c6.5-74.4,37-146.8,85.8-203.3c76.3-89.5,193.5-137.1,310.5-125.2L485,91.5z M741.1,240.9
	c24.1,31.2,41.3,68.4,52.9,106c19.3,63.2,20.3,131.6,3.5,195.4c-41.7,156.3-182.6,267.5-344.6,269.8
	c-69.7,1.1-140.7-19.1-199.4-57.3c-9.8-6.8-24.6-15.9-22.9-21.8c23.1-25.8,136.8-137.8,252.9-254.7
	c75.3-75.5,187.6-187.5,244.3-243.4c1.4-1.3,2.8-2.2,4.8-1.5C734.8,234.2,737.7,236.8,741.1,240.9L741.1,240.9z"/>
</svg>
