<?xml version="1.0" encoding="utf-8"?>
<!-- Generator: Adobe Illustrator 28.3.0, SVG Export Plug-In . SVG Version: 6.00 Build 0)  -->
<svg version="1.1" id="Layer_1" xmlns="http://www.w3.org/2000/svg" xmlns:xlink="http://www.w3.org/1999/xlink" x="0px" y="0px"
	 viewBox="0 0 855.8 780.8" style="enable-background:new 0 0 855.8 780.8;" xml:space="preserve">
<style type="text/css">
	.st0{fill:#7300FF;}
</style>
<g transform="matrix(0.10000000149011612, 0, 0, -0.10000000149011612, 1.1368683772161603e-13, 900.0000000000002)">
	<path class="st0" d="M8057.9,8987.2c-122.5-48.2-213.6-145.8-301.1-248c-146.8-180.4-309-379.3-468.2-557.4
		c-106.5-127.3-204.2-243.2-306.7-368.9c-73.2-90.4-151.6-163.8-212.3-253.2c-93.5-126.1-74.7-328.4,71.9-384.5
		c197.1-80.9,368.9,125.7,508.2,241.1c172.7,145.1,347.7,286.5,517.3,435.2c330.8,328.8,887,553.9,623.8,989.4
		c-94.9,133.5-269,196.2-431.2,146.9L8057.9,8987.2z"/>
	<path class="st0" d="M5394.2,7559.9c-148.2-30.7-254.7-135.5-334.2-257.4c-146.6-235.8-330.7-538.3-436.2-738.8
		c-223.2-437.1-1169.2-2102.4-162.3-2096.2c810.3,36.5,1778.3,671.7,2466.6,1088.8c95.6,78.5,174.9,205.7,198.2,332.7
		c19.3,106.7-15,217.8-65.3,313.1c-37.3,69.6-92.3,117-145.1,175.1c-90.3,94.8-208.2,214-291.2,288.9
		c-13.6,13.4-35.4,26.4-51.1,10.6c-152.7-135.7-328.8-324.7-484.6-469.4c-40.6-38.2-109.1-99-155.6-108.3
		c-113.4-24-227.7,51.4-266.1,156.1c-27.8,68.4-17,162.2,32.6,221.9c87,97.4,431.9,436.8,520.3,535.8c36.6,32.8-10,63.3-31.5,90.8
		c-130.3,140.3-289.1,294.6-407.6,390.7c-107.7,76.4-258.1,85.6-385.1,66L5394.2,7559.9z"/>
	<path class="st0" d="M60.8,7192.3C-50,7141,19.4,6335.6,11.6,6193.4c-1.2-10.9,2.5-19.9,14.6-28.5c756.5-21,2950.5-13.8,3237.3-4.3
		c31.2,7.1,14.4,66.8,18.5,92.5c-0.5,147.4,1.7,317.1,0.5,449.1c-0.9,122.6,1.6,232.7-9.7,351.5c-2.3,46.8-31.9,103.7-62.2,126.9
		c-20.4,13.8-52.1,19.6-117.5,22.8c-623.1,15.9-1364.5,6.8-2045,7.8c-308-7.1-713.3,20.1-986.7-18.7L60.8,7192.3z"/>
	<path class="st0" d="M6206.5,6741.5c-68.6-72.3-138.4-142.5-211-211.7c-67.3-69.9-194.1-173.3-166.9-226.9
		c10.1-21,35.5-33.1,52.6-32.7c21.5,3.2,31.7,14.9,55,33.9c31.2,28,62.2,57.1,91.9,85.4c218.5,214.1,439.4,430.3,648.4,652.6
		c16.9,23.1-18.2,53.6-33.8,70.2c-15,13.7-30.5,24.8-45.5,11.9c-77-66.8-294.6-285.9-389.6-381.3L6206.5,6741.5z"/>
	<path class="st0" d="M2.4,5447.2c0.5-103.7-1.4-386.6,0.9-505.6c2.1-24.7,33.6-22.7,53.2-23.8c335.4-12.4,1100.7,0.2,1443.3-0.4
		c25.4-1.3,47.4,14.7,46.5,43.3c3.4,265.3,0,669.4,1,933.4c-0.1,20.2,1.3,49.6-15.7,62.9c-402.7,30.7-1065.5,4.5-1466.3,15.1
		c-29.6,0.7-67.9,1.9-62.9-40.4c0.2-103.2-0.3-347.5-0.1-483.1L2.4,5447.2z"/>
	<path class="st0" d="M1729.7,5444c-0.2-77.6,2.5-371.3,2.9-483.7c0.2-11.3-0.4-24.2,8.2-33c548.2-30.2,1483.3-0.6,2028.1-10.4
		c30.3-1.7,60.9,12.2,65.3,46.8c36.6,340.6,163.8,651.1,283.7,992.9c-291.5,32.5-1733.9,8.3-2267.8,15.5
		c-32.4-5.4-96.9,14.5-118.6-14.9c-9.2-117.5,1.1-424.2-1.6-512.2L1729.7,5444z"/>
	<path class="st0" d="M16.1,4728.3c-20.5-58.2-7.5-153-12.3-220.9c-2.2-248.2,3.1-539.5,3.6-777.9c532.6-150.4,3154-12.6,3258-47.1
		c9.3,9.7,11.6,35.5,13.1,55.2c3.8,316,11.2,651.3-2.9,960.7c-74,95.6-2607.8,32.5-3258.7,30.7L16.1,4728.3z"/>
	<path class="st0" d="M3475.9,4730.4c-35-16.4-13.6-106-21.8-141.1c4.8-292.5-19.5-615,12.9-907.1c74.7-4.2,2621.9-24.3,3251.5,3.6
		c10.4,7.4,10.2,34.1,10.4,51.6c-5,320.5,12.5,664.7-3.9,957.4c3.3,57.4-63.1,39.9-100.5,44.2c-229.1,1.6-534,8.7-726.6,0.4
		c-293.4-97.3-578.7-271.4-878.4-354.9c-430.8-135.2-1017.4-204.6-1185.2,337.6c-11.4,9-23.3,11.7-36.5,13.6
		c-76.6,8.7-233,11.5-320.9-4.9L3475.9,4730.4z"/>
	<path class="st0" d="M6924,4723.8c-20.1-292.2-9.7-748.9-3.3-1012.6c1.1-15.3,10-21.9,24.8-22.7c399-36.5,1054.7-4.4,1462.1-15.7
		c45.3-3.3,50.9,30.3,50.3,68.2c2,37.9,3.1,97.3,3.6,142.1c2,227.5-2.8,503.2-4.4,726.8c-0.4,75-49.6,117.5-124.9,124.7
		c-391.3,13.8-836.4,5.8-1241,5.3c-32.5-0.5-70.4-1.2-101.4-2.5c-37.7-4.1-54.1,1.4-65.4-12.7L6924,4723.8z"/>
	<path class="st0" d="M30.7,3490.7c-34.1-14.8-26.3-139.9-31.5-179.2c-7-224.4,9.8-632.7,9.7-825.2c0-14,0.5-30,13.2-39.7
		c398.7-27.1,1045.1-0.6,1447.4-9.6c38.7-1.3,78.7,0.6,77.5,50.4c0.8,267.3,0.7,669.6,0.1,937.4c0,17.9,0,42.7-15.3,53.9
		c-309.5,23-1121,14.8-1500.2,12.2L30.7,3490.7z"/>
	<path class="st0" d="M1745,3487.4c-8.3-75-30.8-771.7,4.9-1032.8c836.2-52.6,2350.6-4.7,3186.4-22.3c44.2-3.3,70.6,15.5,66.1,63.7
		c-0.2,67.8,0.2,134,0.1,208.6c-0.6,256.9,1.3,515.7-3.9,731.3c-1.3,16,2.3,35.4-10.8,47.1c-573,25.5-2416.8,12.1-3242.3,4.6
		L1745,3487.4z"/>
	<path class="st0" d="M6819.9,3492c-184.8-5.3-1442.3,5.3-1620.2-9.8c-10.2-1.4-8.7-9.2-10.3-21.8c-5.9-284.4-0.9-689.4-1.3-972.2
		c1.3-24.8,11.9-43.2,37.1-42c824.2-27.5,2339-0.1,3164.5-9c22.4-0.8,56.5,1.7,62.9,29.4c7.7,200.9,8.3,458.9,11.9,667.7
		c-2.2,149.4,3.8,242-17.4,337.2c-1.1,8.4-8.3,20.3-13.7,21.4c-81.3,0.7-1202,2.2-1612.5-1L6819.9,3492z"/>
	<path class="st0" d="M2.3,2233.5c-7.5-172.3,0.2-480.3,4.3-678.2c0.7-59.6,0.1-124.6-0.6-184.9c-4.2-76.8,8.5-141,90.2-166.6
		c236.5-1.9,2759.3-43.2,3172.2,11.5c9.3,8.3,3.7,22.8,6.8,40.3c8.2,158.7,8.2,341.6,6.3,500.1c-1,170.8-2.9,339.1-3.4,435.2
		c0.3,15.4-1.6,37.1-13.8,47.5c-598.1,11.3-2442.5,33.8-3261.5-4.3L2.3,2233.5z"/>
	<path class="st0" d="M3461,2237.7c-11.5-293.1-19.6-713.2,0.5-1019.2c228.9-56.2,2632.5-18.2,3243.2-18.9
		c13.9,0.1,18.6,8.1,20,24.1c20.6,309.3-0.5,695.2,11.6,1009.5c28.8,27.1-272,9.2-653.6,17.7c-21.3,0.2-40.8,0.1-59.4,0.2
		c-698.8-5-1884.7,17-2561.8-12.6L3461,2237.7z"/>
	<path class="st0" d="M6924.4,2240.2c-24.6-136.4-8-729.3-10.8-987.4c-0.3-16.8,2.1-37.6,16.3-48.6c332.3-26.4,966.9-4.7,1348.5-4.8
		c67.3,2.7,155.8-3.5,166.5,83c13.8,70.5,11,165.2,12.1,239.8c0.9,200.4,0.2,474.1,0.1,686.9c-0.3,10.9-2,25.3-10.7,31.5
		c-297.5,13.6-1144.4,18.4-1521.4-0.1L6924.4,2240.2z"/>
</g>
</svg>
