<?xml version="1.0" encoding="utf-8"?>
<!-- Generator: Adobe Illustrator 28.3.0, SVG Export Plug-In . SVG Version: 6.00 Build 0)  -->
<svg version="1.1" id="Layer_1" xmlns="http://www.w3.org/2000/svg" xmlns:xlink="http://www.w3.org/1999/xlink" x="0px" y="0px"
	 viewBox="0 0 843 737.9" style="enable-background:new 0 0 843 737.9;" xml:space="preserve">
<style type="text/css">
	.st0{fill:#8CFF00;}
</style>
<g transform="matrix(0.10000000149011612, 0, 0, -0.10000000149011612, 0, 899.9999999999999)">
	<path class="st0" d="M647.2,8992c-452.3-72.5-682.5-400.7-638.6-887.6c-1.8-228.4-9.1-483.2-7-713.5c2.9-86.9-8.4-137.9,16.7-181.2
		c-4.2-13.5,6994.7-14.2,8403.3,2.5c9.9,45.8-1,92.9,3.3,161c-20.9,540.4,65.5,1031.2-79.4,1261.1
		c-355.5,564.2-1174,350.7-3258.7,366.8c-1073.9,8.3-3725.3-0.3-4438.4-8.9L647.2,8992z M910.8,8556.9
		c138.6-30.7,237.2-117.8,306.6-236.2c25.5-39.8,44.7-81.2,45.2-126.9c2.7-53.1,2.5-104.8,1.6-158.5
		c-3.4-98.4-28.4-135.8-72.5-201.5c-326.9-468-1015.7-77.7-832.9,423.1c79.7,219.1,315.4,361.2,549.9,300.5L910.8,8556.9z
		 M2455.2,8518.6c414.1-194.7,320.5-807.2-112-889.9c-101.9-21-207.4-3.2-297,45.5c-221.2,118.9-325.9,401.2-207.3,634.5
		c57.4,106.6,168.6,201.8,283.6,236.7c91.9,17.6,244.4,18.2,330.9-25.9L2455.2,8518.6z M3906.7,8513.1
		c277.3-121.6,355.8-536.2,136-749.8c-281.4-302-806.9-100.8-803.3,314.8c-14,158.2,65.5,306.7,196.5,392.7
		c135.7,92.3,318.6,117.3,469,43.2L3906.7,8513.1z"/>
	<path class="st0" d="M754,8255.5c-93.1-31.1-155.9-146-96.3-234.5c35-63.9,108.3-111.3,180.2-85.8c72.3,27.8,127.8,65,123.3,153.9
		c11.3,117.6-94.6,199.1-205.3,166.9L754,8255.5z"/>
	<path class="st0" d="M2203.2,8252.7c-82.1-18-123.4-122.9-105.9-199.6c21-106.7,158.6-173.1,247-99.2
		c96.6,66.5,84.2,225.8-6.3,282.6c-37.5,21.8-92.1,21-133,16.6L2203.2,8252.7z"/>
	<path class="st0" d="M3601,8220.1c-90.1-73-79.6-201.3,8.5-268.2c127.9-98.3,276.1,31.1,260.7,174.7c-3.7,25.2-23.6,45.6-37.1,67.5
		c-42.5,57.5-172.4,81.1-230.6,27.4L3601,8220.1z"/>
	<path class="st0" d="M8.1,6892.8C-1.6,6060.5-1.1,4199.7,0.6,3322c36.3-997.5-116.5-1155.2,258.7-1527.3
		c106.3-97.5,238.6-146.7,388.6-165c219,2.9,2660.9-18.7,3580.1-7.7c737.3,0.9,1501.1,1.7,2203.5,3.2c514,1.4,1208-3.1,1451.4,16.3
		c208.8,54.7,367.7,168.2,464.3,351.4c77.1,73.3,83.2,258,82.5,992.1c3.8,985-2,2496.9,0.3,3817.6c-4,57,9.8,95.6-8.4,97.4
		c-1219.8,2.8-6581,2.6-8413.3-7L8.1,6892.8z M4571,5998.7c91.7-69.4,49.3-197.6,27-294.7c-10.3-42.5-22.5-91.9-30.4-130.2
		c-7.3-35.3-6.1-60-15.4-93.3c-11.2-36.4-20.7-73.5-25.3-111.1c-21-115.4-50.5-256.3-80.7-374.1c-6.2-47.4-13.5-89.7-28.2-134.6
		c-8.8-34.4-8.2-61.4-15.9-97.3c-11-56.2-30.8-128.4-42.4-180.5c-8.1-31.2-7.9-54.4-13.5-86.1c-3.9-19-10.4-37.9-15.8-56.6
		c-10.6-32.8-10.1-65.7-16.6-99c-9.7-47.1-29.2-108.6-37.6-157.9c-8.6-44.8-13.2-80.2-23.6-119.5c-7.4-26.8-18-57.9-21.1-88.5
		c-3.6-40.9-10.8-82.6-23.1-121.4c-36.7-135-64.4-338.9-103.5-487.3c-28.2-125-60.5-310.7-88.4-392.9
		c-28.8-58.5-111.1-109.8-176-87.1c-51.5,21.9-106,73.2-109.7,133.5c-3.3,35,4.9,72,13.3,112.8c7,44,20.2,88.5,31.2,130.4
		c158.8,777,334.2,1579,495.6,2364.5c11.3,58.3,28.2,116.9,40.9,174.2c7,30.5,7.1,59.9,14.5,92.3
		c23.7,107.3,147.3,184.9,243.2,105.7L4571,5998.7z M3349,5413.6c47.3-29.9,79.5-98.5,67.9-153.4c-28.3-83.1-169.9-179-245.1-251.9
		c-159.6-133.2-341.7-291.7-466.8-397.4c-47.4-39.7-151.5-112.5-149.4-142.1c0.5-25.9,17.9-31.3,39.5-52.5
		c110.3-94.4,271.9-225.8,364.3-308.9c71.2-60.7,160.6-134.4,228.3-193.5c36.8-34.2,240.5-186.2,234.4-264.6
		c-1-109.5-136.4-183.9-231.8-130.3c-285.7,234.6-531.3,451.2-815.9,690.9c-59,53.6-128.1,99.7-181.5,164.1
		c-110.6,140.4,56.9,246.9,157.3,330.8c265.8,230.9,525.4,448.5,778.9,665.7c63,47.8,143.9,83.4,218.5,44L3349,5413.6z
		 M5295.5,5383.1c299.3-247.8,592.9-506.8,890.9-754c126.8-118.7,132.8-212.3-5.3-322.5c-240.6-210.5-524.9-446-767.5-655.9
		c-10.8-9-23.8-20-35.2-29.5c-102.2-85.3-135-107.5-159.1-114.9c-28.4-7.4-71.6-6.6-103.5,6.3c-41.2,15.5-69.2,51.2-80.7,92.7
		c-8.6,25.9-11.5,41.7-4.3,64.4c57.7,146.2,307.4,298.9,436.7,426.6c115,92.7,253.1,213.8,368.1,312c21,18.7,65.2,49.5,41.9,79
		c-51.3,57.7-151.3,130.8-214.4,188c-154.5,140.5-426.1,346.6-597.5,520.5c-31.4,37.2-40.6,70.7-32.7,123.5
		c5.1,63.9,67.8,110.6,127.8,113.3c45.5,4.3,96.5-16.6,133.3-48L5295.5,5383.1z"/>
</g>
</svg>
