<?xml version="1.0" encoding="utf-8"?>
<!-- Generator: Adobe Illustrator 28.3.0, SVG Export Plug-In . SVG Version: 6.00 Build 0)  -->
<svg version="1.1" id="Layer_1" xmlns="http://www.w3.org/2000/svg" xmlns:xlink="http://www.w3.org/1999/xlink" x="0px" y="0px"
	 viewBox="0 0 829 819.5" style="enable-background:new 0 0 829 819.5;" xml:space="preserve">
<style type="text/css">
	.st0{fill:#7300FF;}
</style>
<g transform="matrix(0.10000000149011612, 0, 0, -0.10000000149011612, -1.1368683772161603e-13, 899.9999999999999)">
	<path class="st0" d="M7746.7,8973c-65.3-17.4-109-102.5-148.4-157c-145.3-218.7-301.3-376-489.4-463.1
		c-363.1-135.2-629.1-144.5-887.8-473.4c-629.7-803.8,172.5-1964,1147.2-1693.7c351.7,95.5,657.3,365.6,767.1,716.6
		c175.8,549.4,294.6,1578-141,1993.2c-69.4,62.1-155.1,94.9-246.3,77.8L7746.7,8973z"/>
	<path class="st0" d="M3154.4,8493.6c-704.7-47-1382.2-342.9-1923.2-792.2C-698.4,6165.3-289.6,2972,1921.1,1953.2
		c311.9-130.7,677.3-71.6,939.3,131.9c252.7,186.8,392,521.6,360.2,867.9c-3.3,649.7,356.6,1308,1020.4,1456.1
		c165,38.4,192.7,6.9,243.6,86.8c245.7,490.5,438.7,882.1,721.9,1319.6c31,50.2,79.3,113.1,115.6,151.4
		c75.4,80.2,101.2,67.4,173.4,192.3c37.7,66.5,63.5,119.9,98,193.5c44,91.8,100.5,205.2,138.5,291.3c14,31.9,22.6,53.1,24.6,63.1
		c0,11.8-5.2,19.4-9.9,33.2c-96.4,253.1-120.9,590.9-48.5,852.4c7.6,37.2-9.6,66.7-36.5,90.6
		c-705.2,599.9-1577.7,880.6-2505.1,810.7L3154.4,8493.6z M4341.6,7116.3c217.8-53.8,379.3-208.1,425.7-421.9
		c154.5-571.9-633.9-956.3-989.3-483.4c-73.9,89.8-117.4,204.8-121.4,316.8c-17.5,355.3,319.3,682.4,682.9,588.9L4341.6,7116.3z
		 M2356.2,6810.6c774.1-197,429.2-1355.3-336.7-1076.2c-266.3,108.7-400.2,390.2-328.2,661.1c72.7,290.4,346.2,481.3,662.6,415.6
		L2356.2,6810.6z M2071.9,4869.5c314-90,470.1-383.2,401-676.7c-61.1-275-311.3-466.9-599.5-434.2
		c-790.7,97.7-581.3,1287.3,196.2,1111.5L2071.9,4869.5z"/>
	<path class="st0" d="M5962.2,6313.8c-46.5-64.3-191.2-376.5-256.7-503.9c-6.3-13.6-17.8-21.5-32-27
		c-59.4-19.1-111.3-52.7-146.6-99.9c-741-1185.2-1319.7-2508.1-1483.6-3892c-16.2-149.7-24.3-292.9-24.2-433.8
		c-13.8-405.1,82.9-764.4,541.3-444.4c340.2,241.8,705.6,691.9,948.9,1034.6c657.8,917.1,1099.4,1928.3,1432.1,3006.8
		c79.6,199.2-48,236.7,11.2,335.7c38.2,84.8,120.8,286.6,159.4,386.4c11.3,31.9,46.3,97.9,36,109.5c-8.1,17.9-60.5,19.7-84.6,21.7
		c-360.6,3.4-734.5,161.4-993,430c-20.8,21.7-51.7,52-72.2,72c-4.7,4.6-8.4,8.2-13.2,11.9c-7,5.3-14.9,0.1-21.9-6.8L5962.2,6313.8z"
		/>
</g>
</svg>
