<?xml version="1.0" encoding="utf-8"?>
<!-- Generator: Adobe Illustrator 28.3.0, SVG Export Plug-In . SVG Version: 6.00 Build 0)  -->
<svg version="1.1" id="Layer_1" xmlns="http://www.w3.org/2000/svg" xmlns:xlink="http://www.w3.org/1999/xlink" x="0px" y="0px"
	 viewBox="0 0 893.6 895" style="enable-background:new 0 0 893.6 895;" xml:space="preserve">
<style type="text/css">
	.st0{fill:#6F00FF;}
</style>
<g transform="matrix(0.10000000149011613, 0, 0, -0.10000000149011613, 1.1368683772161603e-13, 900.0000000000002)">
	<path class="st0" d="M7258.4,8947.3c-232.2-253-871.6-892.3-1160.1-1206c-39.9-140.8-41.3-330.3-57.3-468.9
		c-17-93.3-6.6-209.4-27.6-306.6c-9.7-44.5-15.3-167.8-18.5-238.3c-0.1-19.3-6-36.1-18.7-48.1
		c-332.2-328.4-945.4-952.9-1282.8-1277.3c-68.4-16.4-141.1-3.6-217.1-11.7c-967.4-1.6-1241.7-1294.6-378.3-1698.6
		c392.1-190.8,918.9-34.3,1132,362.7c107,185.9,171,416.7,104.4,617.4c-3.7,16.2-12.9,29.5-6.7,39
		c103.7,154.7,1001.6,1057.1,1307.9,1311.9c224.8,31.7,451.4,45.2,677.5,63.7c106.6,9.5,214.4,16.7,320.3,32.6
		c268.6,232,1178.5,1174.1,1281.7,1275c-93.9,31.6-949.8-18.2-1185.5,25.6c-68.6,67.6-136.9,136.1-211.9,210.3
		c-59.3,58.9-117.2,116.2-161.2,159.7c-7.7,8.8-19.7,16-19.5,27.7c-2.7,247.7-0.6,729.3-4.2,954.8c-9.5,102.6,19.2,303.7-73.7,175.9
		L7258.4,8947.3z"/>
	<path class="st0" d="M4120.8,8964.2C862.2,8733.1-1077,5027.1,610.4,2239.9c2472.3-4105,8751.7-2045.2,8306.7,2749.3
		c-23.7,238-65.7,461.4-127.4,681.9c-16.9,87.9-47.9,171.1-79.5,254.3c-24.6,76.2-55.2,156-91.2,240.5
		c-18.9,46.1-47.2,103.8-70.2,139.8c-7.1,10.6-16.5,13-29.9,3.5c-206.7-176-410.8-381.7-620.7-577.1c-42-44.9,2-111.1,8.6-163.1
		c9-47.1,16.2-90.3,32.4-135.1c12.3-60.9,20.9-108.2,32.9-175c102.7-522.3,96.9-1177-38.8-1671.1
		C7561.8,2204.3,6320,1096.9,4887.6,945.2C216.7,594.2-664.5,7151.1,3937.7,8046.9c50.6,12.7,186.4,20.2,256.2,26.9
		c101.2,7.6,245.8,21.6,346.4,11.7c174.1-16.2,357.2-30.4,529.6-60.6c47.3-16.2,92.2-19.3,142.1-28.6
		c110.9-26.5,252.9-71.2,378.1-106.2c30.4-8.3,50.3-19.3,70.5,1.8c141,142,555.6,551.8,652.7,666.4c7.3,10,15.9,13.6-4.8,28.4
		c-696.8,327.1-1384.2,412.6-2185.5,377.7L4120.8,8964.2z"/>
	<path class="st0" d="M4366.4,7184.1c-2005.2-82-3231.3-2277.3-2221.7-4016.5C3395,969.4,6756.9,1627.4,7121.6,4111.5
		c21.5,105.9,15.5,309.8,16.9,450.1c0.3,83.3,1.5,221.5-12.4,290.5c-22.6,83.5-26.3,157.7-49.4,242.7
		c-18.6,82.2-49,158.1-68.5,237.9c-14.3,37.3-38.1,82-50.9,120.4c-17,40.4-38.2,88.6-59.7,128.4c-5.9,13.1-16.7,32.3-30.3,35.9
		c-68.6-3.5-205.2-205.1-290.3-281.2c-91-97.8-149.1-159.3-226.2-239.6c-166-174.1-131.5-146-108.9-296.4
		c250.8-1826.5-2005.5-2841.1-3169.8-1418c-295.4,371.6-435.9,853-385.2,1324.2c64.2,733.1,681.9,1400.2,1403.2,1548.6
		c47,11.8,117.6,13.4,167.8,26c185.8,43.6,458.7-25,665.9-19.6c40.3,31.9,274,271.6,320.1,315.5c66.9,66.3,156.5,156.5,204.4,205.4
		c36.4,37.3,107.8,112,120.4,141.1c17.4,34.4-1.9,45.5-41.8,59.8c-27.1,10.3-58.1,19.6-91.4,30.7
		c-222.2,72.7-464.5,139.5-700.3,152.3c-116.1,9.7-234.5,30.7-366.6,17.9L4366.4,7184.1z"/>
</g>
</svg>
