<svg viewBox="59.203 32.193 393.46 447.307" fill="#8000ED" xmlns="http://www.w3.org/2000/svg"><path d="M248.3 34.1c-3 1.5-4.8 3.3-6.2 6.3-2 3.9-2.1 6.1-2.1 31.1v26.9l-16.7-16.6c-18-17.8-19.7-18.9-27.8-17.4-4.6.9-10 6.2-11.5 11.4-2.6 8.6-1.8 9.7 28.6 40.2l27.4 27.6-.2 42.2-.3 42.2-27-15.6c-14.8-8.6-31.3-18.1-36.5-21.1l-9.5-5.5-9.8-36.6c-5.3-20.2-10.6-37.8-11.6-39.2-6.8-9.3-19.4-9.3-26.3 0-3.7 5-3.4 8.5 2.7 31 3.1 11.7 5.5 21.3 5.3 21.5s-10.4-5.6-22.8-12.7c-13.5-7.8-24-13.2-26.1-13.5-14.4-2-23.6 15.8-13.6 26.2 1.8 1.8 13.1 9 25.1 15.9 12.2 6.9 21.3 12.7 20.5 13S99.7 194.2 89 197c-11.5 3.1-21 6.1-23.1 7.5-6.8 4.4-8.8 15.1-4.1 21.5 3.2 4.2 8.1 7 12.6 7 2.3 0 20-4.3 39.4-9.5 19.5-5.2 35.9-9.5 36.4-9.5 1.4 0 72.8 41.2 72.8 42 0 .9-71.5 42-72.9 42-.6 0-17-4.3-36.4-9.5S76.6 279 74.4 279c-7.2 0-14.1 6.3-15.1 13.7-.7 5.3 2.5 12.6 6.6 15.1 1.7 1.1 12.2 4.3 23.4 7.2 11.1 2.9 20.5 5.6 20.9 5.9.3.3-9.4 6.4-21.6 13.4-12.3 7-23.3 13.8-24.4 15-4.7 5-5.6 13.4-1.9 18.7 3.8 5.7 7.2 7.5 13.5 7.5 5.5-.1 6.6-.6 28.2-13.2 12.4-7.2 22.6-13 22.8-12.8.2.1-2.3 9.9-5.4 21.7-6.2 23.6-6.4 26.3-1.7 31.8 7.1 8.4 18.9 8 25.4-1 1-1.4 6.3-19 11.6-39.1l9.8-36.7 36.5-21.1 36.5-21.1.3 42.2.2 42.2-27.4 27.6c-30.4 30.5-31.2 31.6-28.6 40.2 1.5 5.2 6.9 10.5 11.5 11.4 8.1 1.5 9.8.4 27.7-17.3l16.7-16.6.3 28.1c.3 26.5.4 28.2 2.4 30.8 3.9 5.3 7.1 6.9 13.4 6.9s9.5-1.6 13.4-6.9c2-2.6 2.1-4.3 2.4-30.8l.3-28.1 16.7 16.6c17.9 17.7 19.6 18.8 27.7 17.3 4.6-.9 10-6.2 11.5-11.4 2.6-8.6 1.8-9.7-28.6-40.2L272 368.4l.2-42.2.3-42.2 36.5 21.1 36.5 21.1 9.8 36.6c5.3 20.2 10.6 37.8 11.6 39.2 6.8 9.4 19.4 9.3 26.3-.1 3.7-4.9 3.3-9-2.7-31.3-3.1-11.4-5.5-21-5.3-21.1.2-.2 10.4 5.6 22.8 12.8 18.9 10.9 23.3 13.1 27.5 13.4 4.1.4 5.6 0 8.4-1.9 5.9-4 7.6-7.2 7.6-14.3 0-5.7-.3-6.7-3-9.5-1.6-1.7-12.8-8.8-24.8-15.7s-21.5-12.9-21-13.3c.4-.5 9.6-3.1 20.3-6 10.7-2.8 21-6.1 22.9-7.2 4.6-2.9 7.5-9.6 6.6-15.4-1.1-7.5-7.7-13.4-15-13.4-2 0-19.6 4.3-39.1 9.5s-35.9 9.5-36.5 9.5c-1.3 0-72.9-41.2-72.9-42 0-.7 71.5-42 72.8-42 .6 0 17 4.3 36.5 9.5s37.1 9.5 39.1 9.5c7.4 0 14-5.9 15.1-13.5.9-5.6-2.2-12.5-6.8-15.4-1.8-1-12-4.3-22.7-7.1-10.7-2.9-19.9-5.5-20.3-5.9-.4-.5 8.8-6.3 20.5-13 11.7-6.8 22.9-13.8 24.8-15.7 3.3-3.2 3.5-3.8 3.5-9.8 0-7.2-1.6-10.4-7.6-14.4-2.8-1.9-4.3-2.3-8.4-1.9-4.2.3-8.6 2.5-27.5 13.5-12.4 7.1-22.6 12.9-22.8 12.7-.2-.1 2.2-9.7 5.3-21.1 6-22.3 6.4-26.4 2.7-31.3-6.9-9.4-19.5-9.5-26.3-.1-1 1.4-6.3 19-11.6 39.2l-9.8 36.7L309 207l-36.5 21-.3-42.2-.2-42.2 27.4-27.6c30.4-30.5 31.2-31.6 28.6-40.2-1.5-5.2-6.9-10.5-11.5-11.4-8.1-1.5-9.8-.4-27.7 17.4L272 98.4V71.5c0-25.1-.1-27.2-2.1-31.1-3.7-7.7-13.3-10.4-21.6-6.3" /></svg>
