<svg viewBox="-0.5 14.122 512 483.799" xmlns="http://www.w3.org/2000/svg" fill="#8e1dff"><path style="opacity:.988" d="M238.5 14.5q100.432-5.925 149.5 81 19.323 38.943 14 82-56.32-12.368-109.5 10.5-19.507 9.31-37 21.5-57.21-41.645-128-35.5a119.5 119.5 0 0 0-18.5 3.5Q101.796 82.655 182.5 33q26.541-14.265 56-18.5"/><path style="opacity:.971" d="M145.5 201.5q48.275.343 87.5 28 1 1 0 2a165 165 0 0 0-23 31 590 590 0 0 0-16 34q-59.758-28.01-79.5-91 15.575-3.054 31-4m216 0a237 237 0 0 1 35 4q-19.74 62.99-79.5 91-13.847-36.582-39.5-66 37.43-27.644 84-29"/><path style="opacity:.988" d="M-.5 366.5v-33q11.967-80.218 84-117.5 1.5-1 3 0 26.835 76.586 101 109.5-7.97 82.083 46 144-49.25 35.81-110 26.5Q17.725 472.977-.5 366.5m512-33v33q-18.223 106.477-124 129.5-60.009 9.005-109.5-25.5 4.095-8.16 11-15 41.615-58.455 34.5-130 74.695-32.69 100-110 54.408 23.16 77.5 78 7.641 19.573 10.5 40"/><path style="opacity:.953" d="M254.5 249.5q11.532 10.31 19.5 24a230 230 0 0 1 14.5 32l-1 1q-32.699 8.343-65-1 10.624-31.27 32-56"/><path style="opacity:.973" d="M216.5 334.5q38.819 9.427 78 1 5.274 66.183-39 115-44.592-49.272-39-116"/></svg>
