<?xml version="1.0" encoding="utf-8"?>
<!-- Generator: Adobe Illustrator 28.3.0, SVG Export Plug-In . SVG Version: 6.00 Build 0)  -->
<svg version="1.1" id="Layer_1" xmlns="http://www.w3.org/2000/svg" xmlns:xlink="http://www.w3.org/1999/xlink" x="0px" y="0px"
	 viewBox="0 0 765.8 738.9" style="enable-background:new 0 0 765.8 738.9;" xml:space="preserve">
<style type="text/css">
	.st0{fill:#7300FF;}
</style>
<g transform="matrix(0.10000000149011612, 0, 0, -0.10000000149011612, 0, 900)">
	<path class="st0" d="M3754.5,8989c-1332.8-291.2-2328.3-1939.2-2474.9-3270.5c-2.3-25.7-11.3-76.5,4.7-90.8
		c8.8-5.7,27.8,4.2,50.3,18.8c17.6,11.5,36.5,24.9,54.4,36.9c1378.4,916,3392.5,930.4,4798,49.9c48.8-29.9,95.1-59.1,137.7-86
		c10.8-5.9,23-15.4,34.2-10.9c7.4,1232.8-1247.3,3295.7-2602.6,3352.8L3754.5,8989z"/>
	<path class="st0" d="M3633.4,6132.4c-374.1-20-880.3-102.8-1179.8-207.1c-79.7-37.3-48.6-178.2-27.7-303.7
		c14.4-73.2,33.6-152.6,51.5-227.8c192.8-888.7,1189.6-1528.5,1992.4-1005c322.7,201.9,580.1,572.9,695,947.8
		c51.2,166.2,77.3,338.8,70.5,507.8c-1,32.5-9.7,66.5-41.4,79.9c-387.7,145.1-1108.1,229.4-1558.8,208.2L3633.4,6132.4z"/>
	<path class="st0" d="M2084.7,5792.2c-214-94.6-687.6-356.6-790.9-500.6c42-591.8,657.9-933.9,1278.6-1266.1
		c364.6-183.2,690.7-297.1,1080.3-381.3c63.2-12.3,128.9-27.4,186.7-27.4c37.9-0.4,70.6,8,110.4,15.8
		c691,125.3,2394.7,823.7,2406.8,1662.7c-132.8,150.8-510.5,369.5-764.3,484.6c-24.3,9.3-57.3,30.7-82.3,25.8
		c-27.5-13.1-23.2-79.6-28.7-109.3C5333.1,4045.4,3481,3251,2490.4,4747c-188.1,309.7-271.9,556-317.7,930.9
		c-7.8,36.2-2.3,88.4-20.6,118.8c-12.8,17.1-48.3,3.8-65.9-3.8L2084.7,5792.2z"/>
	<path class="st0" d="M1540.1,4362.9c-623.8-303.3-1071-902.8-1381.6-1535.3c-35.3-69.4-60.8-126.9-87.1-194.3
		c-185.2-391.7-4.1-816.3,392.6-982.2c44.9-17.4,108.6-43.4,152.2-52.1c1165.2,0.9,4055.2,0.9,5276.1,1.2
		c97.7-0.2,187.1-0.4,268.8-0.6c798.6-1.6,864-1.1,968.5,30.4c13.4,3.7,37.5,11.9,56,19.1c223.9,86.8,427.6,324.1,463.4,565.5
		c38,325.1-165.9,623.6-309.2,894.9c-283.3,528.4-698,975.7-1223.7,1256.5c-40.7,6.5-88.7-36.1-123.6-62
		c-320.9-249-654-430.6-1010.9-591.7c-288.1-122.5-593.9-240.5-902.9-303.8c-152.7-28.4-285.7-42.5-432.8-13.8
		C3133,3502.5,2630.9,3704.4,2176,3960.4c-160.7,86.6-369.3,231.7-506.2,333c-42.5,27-72.9,78.8-128,69.6L1540.1,4362.9z"/>
</g>
</svg>
