<svg version="1.1" id="Layer_1" xmlns="http://www.w3.org/2000/svg" x="0" y="0" viewBox="0 0 843 737.9" xml:space="preserve"><style>.st0{fill:#8e1dff;}</style><path class="st0" d="M64.72.8C19.49 8.05-3.53 40.87.86 89.56c-.18 22.84-.91 48.32-.7 71.35.29 8.69-.84 13.79 1.67 18.12-.42 1.35 699.47 1.42 840.33-.25.99-4.58-.1-9.29.33-16.1-2.09-54.04 6.55-103.12-7.94-126.11C799-19.85 717.15 1.5 508.68-.11 401.29-.94 136.15-.08 64.84.78zm26.36 43.51c13.86 3.07 23.72 11.78 30.66 23.62 2.55 3.98 4.47 8.12 4.52 12.69.27 5.31.25 10.48.16 15.85-.34 9.84-2.84 13.58-7.25 20.15-32.69 46.8-101.57 7.77-83.29-42.31 7.97-21.91 31.54-36.12 54.99-30.05zm154.44 3.83c41.41 19.47 32.05 80.72-11.2 88.99-10.19 2.1-20.74.32-29.7-4.55-22.12-11.89-32.59-40.12-20.73-63.45 5.74-10.66 16.86-20.18 28.36-23.67 9.19-1.76 24.44-1.82 33.09 2.59zm145.15.55c27.73 12.16 35.58 53.62 13.6 74.98-28.14 30.2-80.69 10.08-80.33-31.48-1.4-15.82 6.55-30.67 19.65-39.27 13.57-9.23 31.86-11.73 46.9-4.32z"/><path class="st0" d="M75.4 74.45c-9.31 3.11-15.59 14.6-9.63 23.45 3.5 6.39 10.83 11.13 18.02 8.58 7.23-2.78 12.78-6.5 12.33-15.39 1.13-11.76-9.46-19.91-20.53-16.69zm144.92.28c-8.21 1.8-12.34 12.29-10.59 19.96 2.1 10.67 15.86 17.31 24.7 9.92 9.66-6.65 8.42-22.58-.63-28.26-3.75-2.18-9.21-2.1-13.3-1.66zm139.78 3.26c-9.01 7.3-7.96 20.13.85 26.82 12.79 9.83 27.61-3.11 26.07-17.47-.37-2.52-2.36-4.56-3.71-6.75-4.25-5.75-17.24-8.11-23.06-2.74zM.81 210.72C-.16 293.95-.11 480.03.06 567.8c3.63 99.75-11.65 115.52 25.87 152.73 10.63 9.75 23.86 14.67 38.86 16.5 21.9-.29 266.09 1.87 358.01.77 73.73-.09 150.11-.17 220.35-.32 51.4-.14 120.8.31 145.14-1.63 20.88-5.47 36.77-16.82 46.43-35.14 7.71-7.33 8.32-25.8 8.25-99.21.38-98.5-.2-249.69.03-381.76-.4-5.7.98-9.56-.84-9.74-121.98-.28-658.1-.26-841.33.7zm456.29 89.41c9.17 6.94 4.93 19.76 2.7 29.47-1.03 4.25-2.25 9.19-3.04 13.02-.73 3.53-.61 6-1.54 9.33-1.12 3.64-2.07 7.35-2.53 11.11-2.1 11.54-5.05 25.63-8.07 37.41-.62 4.74-1.35 8.97-2.82 13.46-.88 3.44-.82 6.14-1.59 9.73-1.1 5.62-3.08 12.84-4.24 18.05-.81 3.12-.79 5.44-1.35 8.61-.39 1.9-1.04 3.79-1.58 5.66-1.06 3.28-1.01 6.57-1.66 9.9-.97 4.71-2.92 10.86-3.76 15.79-.86 4.48-1.32 8.02-2.36 11.95-.74 2.68-1.8 5.79-2.11 8.85-.36 4.09-1.08 8.26-2.31 12.14-3.67 13.5-6.44 33.89-10.35 48.73-2.82 12.5-6.05 31.07-8.84 39.29-2.88 5.85-11.11 10.98-17.6 8.71-5.15-2.19-10.6-7.32-10.97-13.35-.33-3.5.49-7.2 1.33-11.28.7-4.4 2.02-8.85 3.12-13.04 15.88-77.7 33.42-157.9 49.56-236.45 1.13-5.83 2.82-11.69 4.09-17.42.7-3.05.71-5.99 1.45-9.23 2.37-10.73 14.73-18.49 24.32-10.57zm-122.2 58.51c4.73 2.99 7.95 9.85 6.79 15.34-2.83 8.31-16.99 17.9-24.51 25.19-15.96 13.32-34.17 29.17-46.68 39.74-4.74 3.97-15.15 11.25-14.94 14.21.05 2.59 1.79 3.13 3.95 5.25 11.03 9.44 27.19 22.58 36.43 30.89 7.12 6.07 16.06 13.44 22.83 19.35 3.68 3.42 24.05 18.62 23.44 26.46-.1 10.95-13.64 18.39-23.18 13.03-28.57-23.46-53.13-45.12-81.59-69.09-5.9-5.36-12.81-9.97-18.15-16.41-11.06-14.04 5.69-24.69 15.73-33.08 26.58-23.09 52.54-44.85 77.89-66.57 6.3-4.78 14.39-8.34 21.85-4.4zm194.65 3.05c29.93 24.78 59.29 50.68 89.09 75.4 12.68 11.87 13.28 21.23-.53 32.25-24.06 21.05-52.49 44.6-76.75 65.59-1.08.9-2.38 2-3.52 2.95-10.22 8.53-13.5 10.75-15.91 11.49-2.84.74-7.16.66-10.35-.63-4.12-1.55-6.92-5.12-8.07-9.27-.86-2.59-1.15-4.17-.43-6.44 5.77-14.62 30.74-29.89 43.67-42.66 11.5-9.27 25.31-21.38 36.81-31.2 2.1-1.87 6.52-4.95 4.19-7.9-5.13-5.77-15.13-13.08-21.44-18.8-15.45-14.05-42.61-34.66-59.75-52.05-3.14-3.72-4.06-7.07-3.27-12.35.51-6.39 6.78-11.06 12.78-11.33 4.55-.43 9.65 1.66 13.33 4.8z"/></svg>
