<?xml version="1.0" encoding="utf-8"?>
<!-- Generator: Adobe Illustrator 28.3.0, SVG Export Plug-In . SVG Version: 6.00 Build 0)  -->
<svg version="1.1" id="Layer_1" xmlns="http://www.w3.org/2000/svg" xmlns:xlink="http://www.w3.org/1999/xlink" x="0px" y="0px"
	 viewBox="0 0 1181.7 928.5" style="enable-background:new 0 0 1181.7 928.5;" xml:space="preserve">
<style type="text/css">
	.st0{fill:#7300FF;}
</style>
<path class="st0" d="M581.5,1C422.3,2.6,271.8,116.1,226.9,270.7c-1.9,3.4-5.5,4.2-9.3,5.8c-72.2,26.6-129.3,76.6-166.5,137.8
	C-80.8,629,57,906.6,311.9,928.4c42.1,0.5,123.3,1,180.7,0.9c102.2-0.1,234.3,0.2,326.8-0.1c74.8-0.5,81.7,0,99.6-1.9
	c12.1-1.3,19-2.4,25.4-4.1c297.4-62.4,319.8-480.1,27.4-572.4c-1-0.5-1.7-1.1-1.9-2.1c-0.5-3.8-1-8-1.8-12.7
	c-0.9-5.9-2-12.5-3.3-19.3C936.8,136.2,765.9-5.3,581.7,1L581.5,1z M627.8,299.4c107.7,13.8,192.8,104.5,213.5,207.4
	c4.8,0.4,10.1,0.1,16.2,0.3c21.1,0.2,47.8,1.1,53.4,8.5c12.3,10.5,17.8,22,16.3,38.8c-0.6,9.4-1.2,13.1-15.3,28.3
	c-2.1,2.2-4.5,4.7-7.1,7.5c-9.2,9.5-18.3,18.5-28.1,28.3c-11.3,10.9-21.3,20.7-29.9,29.6c-23.9,24.7-23.9,25.9-46.2,26.8
	c-4.6-0.2-10-0.7-13.9-1.7c-7.6,0-22.3-16.8-35.9-30.6c-6.6-6.7-13.5-13.4-20.5-20.1c-5.2-5.5-9.8-10.4-14.5-15.1
	c-24.4-25.6-35.9-27.6-41.1-56.5c-0.6-8.1,2.6-16.3,7-23.6c3.5-5.9,8.9-10.4,14.4-14.3c11.4-8.5,44.6-3.4,54.8-6.7
	c0.9-0.3,0.9-1.2,0.8-2.1c-11.6-52.8-64.1-103.4-113.3-116.2c-39.6-11.6-83.8-7.6-119.8,8.1c-7.1,2.2-12.9,2.6-19.1,1.5
	c-8.2-1.5-16.4-5.6-22.3-10.9c-6-5.3-10.2-12.4-11.6-20.3c-14.7-67.8,113.3-73.9,161.9-67L627.8,299.4z M391.7,425.1
	c14.1,2.8,96.6,88.9,108.4,103.1c3,5.5,5.5,12.6,6.3,19c0.8,13.4-7.1,28.6-18.4,36.7c-1.5,1-2.8,1.8-4.1,2.8c-8.3,7-41,2.9-53.9,5.9
	c6.8,55.4,68.5,111.3,124.5,121.8c27.6,6.6,59.8,3.8,86.4-3.6c6.4-1.8,12.3-4,17.4-6.4c3.6-1.9,7.7-2.4,11.7-3
	c31.6-4.7,54.3,28.6,43.9,56.8c-2.6,7.4-7.5,14.1-14.8,19.2C567.3,847.1,389.9,767.1,349,624.4c-1.8-6.4-3.6-14.4-5.4-21.2
	c-1-3.8-1.9-7.2-3-9.7c-0.2-0.5-0.6-0.9-1.1-1.1c-28.9-3.9-65.8,8.2-81.6-23.7c-2.4-4.9-3.8-7.4-3.8-13.8c0-2.3-0.1-4.7,0-6.7
	c0-10.8-0.4-14.1,12.6-28.4c4.2-4.6,10.3-10.9,15.1-15.8c8.1-8.1,16.5-16.8,25.4-25.5c34.1-29.7,47.7-62.9,84.4-53.4L391.7,425.1z"
	/>
</svg>
