<svg xmlns="http://www.w3.org/2000/svg" viewBox="0 0 1181.7 928.5" xml:space="preserve"><path d="M581.5 1C422.3 2.6 271.8 116.1 226.9 270.7c-1.9 3.4-5.5 4.2-9.3 5.8-72.2 26.6-129.3 76.6-166.5 137.8C-80.8 629 57 906.6 311.9 928.4c42.1.5 123.3 1 180.7.9 102.2-.1 234.3.2 326.8-.1 74.8-.5 81.7 0 99.6-1.9 12.1-1.3 19-2.4 25.4-4.1 297.4-62.4 319.8-480.1 27.4-572.4-1-.5-1.7-1.1-1.9-2.1-.5-3.8-1-8-1.8-12.7-.9-5.9-2-12.5-3.3-19.3C936.8 136.2 765.9-5.3 581.7 1zm46.3 298.4c107.7 13.8 192.8 104.5 213.5 207.4 4.8.4 10.1.1 16.2.3 21.1.2 47.8 1.1 53.4 8.5 12.3 10.5 17.8 22 16.3 38.8-.6 9.4-1.2 13.1-15.3 28.3-2.1 2.2-4.5 4.7-7.1 7.5-9.2 9.5-18.3 18.5-28.1 28.3-11.3 10.9-21.3 20.7-29.9 29.6-23.9 24.7-23.9 25.9-46.2 26.8-4.6-.2-10-.7-13.9-1.7-7.6 0-22.3-16.8-35.9-30.6-6.6-6.7-13.5-13.4-20.5-20.1-5.2-5.5-9.8-10.4-14.5-15.1-24.4-25.6-35.9-27.6-41.1-56.5-.6-8.1 2.6-16.3 7-23.6 3.5-5.9 8.9-10.4 14.4-14.3 11.4-8.5 44.6-3.4 54.8-6.7.9-.3.9-1.2.8-2.1-11.6-52.8-64.1-103.4-113.3-116.2-39.6-11.6-83.8-7.6-119.8 8.1-7.1 2.2-12.9 2.6-19.1 1.5-8.2-1.5-16.4-5.6-22.3-10.9-6-5.3-10.2-12.4-11.6-20.3-14.7-67.8 113.3-73.9 161.9-67zM391.7 425.1c14.1 2.8 96.6 88.9 108.4 103.1 3 5.5 5.5 12.6 6.3 19 .8 13.4-7.1 28.6-18.4 36.7-1.5 1-2.8 1.8-4.1 2.8-8.3 7-41 2.9-53.9 5.9 6.8 55.4 68.5 111.3 124.5 121.8 27.6 6.6 59.8 3.8 86.4-3.6 6.4-1.8 12.3-4 17.4-6.4 3.6-1.9 7.7-2.4 11.7-3 31.6-4.7 54.3 28.6 43.9 56.8-2.6 7.4-7.5 14.1-14.8 19.2-131.8 69.7-309.2-10.3-350.1-153-1.8-6.4-3.6-14.4-5.4-21.2-1-3.8-1.9-7.2-3-9.7-.2-.5-.6-.9-1.1-1.1-28.9-3.9-65.8 8.2-81.6-23.7-2.4-4.9-3.8-7.4-3.8-13.8 0-2.3-.1-4.7 0-6.7 0-10.8-.4-14.1 12.6-28.4 4.2-4.6 10.3-10.9 15.1-15.8 8.1-8.1 16.5-16.8 25.4-25.5 34.1-29.7 47.7-62.9 84.4-53.4z" style="fill:#8000ED;"/></svg>
