<svg xmlns="http://www.w3.org/2000/svg" width="512" height="512" fill="#8000ED"
  style="shape-rendering:geometricPrecision;text-rendering:geometricPrecision;image-rendering:optimizeQuality;fill-rule:evenodd;clip-rule:evenodd">
  <path style="opacity:.988"
    d="M207.5-.5h41q54.206 4.983 102 31.5 19.875 12.375 27.5 34.5 2.955 16.675-6 31-16.237 20.503-40.5 30.5-65.42 28.07-136 19-72.76-16.319-61.5-90.5 8.409-35.415 42.5-48.5 15.355-5.212 31-7.5" />
  <path style="opacity:.988"
    d="M375.5 133.5q42.378 22.683 47.5 71 4.934 95.088-89.5 109.5-91.659 9.906-177-25-30.145-12.184-53.5-34.5-34.882-45.973 9.5-83.5a267 267 0 0 1 26-17q1.5-1 3 0 30.744 20.748 68 23 78.196 4.261 148-31a249 249 0 0 0 18-12.5" />
  <path style="opacity:.991"
    d="M255.5 511.5h-73q-43.494-2.913-81-25.5-38.122-27.97-42.5-75.5-5.49-48.56 24-87 13.357-14.868 31-24 68.437 37.642 146.5 44.5a365 365 0 0 0 75-1q30.513-4.588 58-18.5 26.927 13.167 46.5 36 17.783 24.916 11 55-8.159 43.154-46.5 64.5-42.066 21.144-89 26a1136 1136 0 0 1-60 5.5" />
</svg>
